<svg id="svg" version="1.1" xmlns="http://www.w3.org/2000/svg" xmlns:xlink="http://www.w3.org/1999/xlink" width="400" height="400" viewBox="0, 0, 400,400"><g id="svgg"><path id="path0" d="M0.000 200.000 L 0.000 400.000 200.000 400.000 L 400.000 400.000 400.000 200.000 L 400.000 0.000 200.000 0.000 L 0.000 0.000 0.000 200.000 M355.993 16.802 C 378.227 23.134,384.872 51.513,367.945 67.841 C 364.705 70.966,364.211 71.267,358.046 73.869 L 353.800 75.661 347.543 75.621 C 341.976 75.586,340.974 75.472,338.451 74.591 C 333.482 72.855,332.777 73.167,325.428 80.359 C 317.920 87.706,316.408 88.106,311.404 84.066 C 299.810 74.706,284.973 64.975,279.338 63.036 C 277.832 62.518,275.160 61.513,273.400 60.803 C 263.651 56.872,256.174 54.833,244.600 52.950 C 236.453 51.624,213.776 51.351,209.400 52.525 C 208.080 52.880,205.317 53.360,203.259 53.593 C 176.499 56.624,141.435 77.794,123.940 101.481 C 119.275 107.798,115.745 108.167,109.677 102.973 C 105.073 99.032,105.454 97.195,112.762 88.104 C 142.404 51.231,184.804 32.850,235.836 34.750 C 259.436 35.629,289.424 46.292,310.200 61.191 C 315.271 64.827,316.310 65.127,318.202 63.499 C 319.803 62.122,319.889 60.113,318.538 55.600 C 311.403 31.767,332.351 10.069,355.993 16.802 M342.200 28.560 C 326.961 33.379,325.287 54.547,339.572 61.786 C 353.424 68.805,370.604 53.072,363.825 39.575 C 359.086 30.140,350.704 25.870,342.200 28.560 M351.790 34.030 C 356.615 35.836,359.739 40.361,359.778 45.600 C 359.894 61.357,336.020 62.417,334.887 46.705 C 334.213 37.348,343.015 30.747,351.790 34.030 M63.538 80.387 C 78.588 83.454,89.166 95.721,89.195 110.140 C 89.204 114.589,89.616 114.986,98.618 119.228 C 108.539 123.902,109.248 125.181,106.176 132.859 C 104.587 136.833,102.309 143.948,101.651 147.000 C 101.413 148.100,100.675 151.361,100.011 154.247 C 98.819 159.422,97.551 170.862,96.981 181.577 C 96.574 189.236,95.449 190.431,88.400 190.695 C 83.624 190.873,82.248 190.362,80.926 187.918 C 78.587 183.594,81.391 155.070,85.596 140.401 C 88.195 131.335,85.080 128.085,78.560 133.058 C 63.615 144.457,43.598 141.759,33.610 127.000 C 29.361 120.722,27.817 113.721,28.849 105.412 C 30.838 89.385,47.766 77.173,63.538 80.387 M55.648 92.451 C 50.818 93.253,45.361 97.390,43.056 101.998 C 33.960 120.178,56.275 136.624,71.083 122.655 C 83.384 111.051,72.453 89.661,55.648 92.451 M343.927 95.800 C 351.815 102.437,364.391 130.241,368.202 149.468 C 372.557 171.441,372.156 194.041,367.034 215.287 C 363.798 228.709,355.882 246.969,348.690 257.600 C 348.020 258.590,346.384 261.020,345.055 263.000 C 340.395 269.942,330.139 281.728,325.357 285.635 C 323.754 286.945,322.070 288.539,321.615 289.179 C 321.160 289.818,319.845 291.016,318.694 291.840 C 317.542 292.665,314.350 295.001,311.600 297.030 C 302.719 303.585,290.560 310.367,280.497 314.376 C 273.654 317.103,273.174 321.677,279.548 323.422 C 288.223 325.796,291.446 327.473,296.027 331.997 C 306.561 342.399,308.051 359.780,299.405 371.400 C 282.764 393.765,246.747 383.674,244.953 356.144 C 244.261 345.533,246.789 339.281,255.307 330.537 L 258.875 326.874 258.686 324.537 C 258.582 323.252,257.941 319.590,257.261 316.400 C 254.990 305.750,255.698 304.260,264.112 301.966 C 266.360 301.354,269.550 300.238,271.200 299.486 C 272.850 298.735,274.920 297.888,275.800 297.604 C 276.680 297.320,280.097 295.740,283.394 294.094 C 320.559 275.535,346.827 239.542,352.795 199.000 C 353.054 197.240,353.530 194.177,353.853 192.194 C 356.405 176.519,351.688 145.332,344.637 131.260 C 343.904 129.797,342.718 127.250,342.003 125.600 C 339.820 120.568,337.648 116.357,335.501 113.000 C 334.376 111.240,332.944 108.999,332.319 108.019 C 329.643 103.823,330.132 101.126,334.119 98.077 C 338.684 94.586,341.663 93.895,343.927 95.800 M63.918 98.754 C 73.557 103.694,73.656 116.575,64.092 121.283 C 52.958 126.764,41.922 114.870,47.919 103.853 C 50.816 98.529,58.624 96.041,63.918 98.754 M220.136 118.121 C 222.551 119.704,222.509 121.701,219.998 124.602 C 218.204 126.675,217.918 128.550,218.954 131.450 C 219.606 133.275,234.626 163.815,261.815 218.600 C 266.981 229.008,268.988 232.026,272.249 234.289 C 276.081 236.948,276.610 239.615,273.649 241.344 C 271.738 242.460,232.263 242.527,230.569 241.417 C 228.116 239.809,228.319 237.782,231.255 234.539 C 233.201 232.390,233.283 232.210,233.087 230.472 C 232.772 227.678,225.194 212.624,223.720 211.863 C 222.316 211.138,220.305 211.090,194.047 211.151 L 173.094 211.200 171.847 212.541 C 169.925 214.608,163.913 227.708,163.683 230.330 C 163.508 232.327,163.582 232.551,164.888 233.930 C 167.986 237.201,168.365 238.896,166.431 240.831 L 165.262 242.000 147.011 242.000 C 127.026 242.000,126.722 241.966,126.125 239.693 C 125.503 237.326,126.114 236.274,129.569 233.760 L 132.026 231.972 136.852 222.086 C 139.506 216.649,143.103 209.284,144.844 205.721 C 146.586 202.158,148.345 198.468,148.754 197.521 C 149.163 196.574,152.198 190.220,155.498 183.400 C 158.798 176.580,163.435 166.950,165.803 162.000 C 168.170 157.050,171.492 150.210,173.185 146.800 C 180.941 131.177,181.608 128.563,178.800 124.800 C 176.448 121.647,176.651 118.958,179.331 117.775 C 181.487 116.825,218.639 117.139,220.136 118.121 M310.491 118.530 C 325.508 123.313,329.849 143.283,318.189 153.941 C 307.048 164.122,288.301 159.466,283.912 145.426 C 278.577 128.364,293.608 113.154,310.491 118.530 M197.494 157.500 C 195.906 159.263,182.692 188.454,183.055 189.399 C 183.532 190.642,185.258 190.800,198.326 190.795 C 216.473 190.787,215.370 192.037,209.195 178.481 C 206.719 173.047,203.633 166.269,202.336 163.419 C 199.343 156.843,198.744 156.112,197.494 157.500 M323.635 164.218 C 326.375 165.635,326.343 168.176,323.550 170.925 C 319.986 174.433,320.217 172.386,320.071 201.800 C 319.923 231.697,319.878 231.153,322.785 233.964 C 326.528 237.583,326.558 240.670,322.860 241.794 C 320.745 242.436,285.005 242.127,283.705 241.454 C 280.950 240.030,281.304 236.879,284.516 234.247 C 287.739 231.606,287.600 233.010,287.598 203.092 C 287.595 173.169,287.751 174.722,284.404 171.333 C 280.827 167.711,281.276 164.495,285.455 163.794 C 286.305 163.651,287.134 163.504,287.299 163.467 C 289.235 163.032,322.677 163.723,323.635 164.218 M58.023 198.229 C 64.326 199.796,68.761 202.418,73.789 207.549 C 78.659 212.518,79.344 212.627,89.477 210.044 C 99.188 207.567,100.419 208.253,103.162 217.670 C 104.318 221.638,106.330 227.287,107.911 231.000 C 108.286 231.880,109.558 234.310,110.738 236.400 C 111.918 238.490,113.576 241.574,114.423 243.254 C 118.586 251.512,130.949 267.072,138.441 273.482 C 139.674 274.537,142.284 276.766,144.241 278.436 C 166.531 297.448,196.893 308.036,228.927 307.967 C 235.954 307.952,237.400 309.462,237.400 316.818 C 237.400 321.549,236.982 322.643,234.696 323.892 C 232.790 324.933,210.835 324.913,206.620 323.865 C 205.091 323.485,202.571 323.000,201.020 322.787 C 154.918 316.457,111.214 281.728,91.331 235.623 C 88.167 228.285,87.404 227.475,84.549 228.417 C 82.715 229.022,81.827 230.436,80.650 234.623 C 72.741 262.740,36.726 266.273,23.785 240.200 C 19.857 232.287,20.621 219.467,25.499 211.438 C 31.942 200.831,45.819 195.195,58.023 198.229 M46.443 210.385 C 37.139 213.816,31.133 223.586,33.518 231.411 C 38.401 247.431,57.857 250.237,66.756 236.205 C 74.744 223.609,60.316 205.270,46.443 210.385 M56.624 216.111 C 68.700 222.230,64.479 240.221,50.977 240.178 C 38.567 240.138,34.075 223.305,44.719 216.727 C 48.203 214.573,53.091 214.320,56.624 216.111 M268.200 337.028 C 252.556 345.115,254.061 366.300,270.584 370.582 C 283.812 374.010,296.151 361.333,292.078 348.501 C 288.933 338.593,276.619 332.677,268.200 337.028 M279.660 341.814 C 285.831 343.917,289.284 352.426,286.473 358.600 C 283.532 365.056,276.017 367.891,269.867 364.863 C 255.284 357.684,264.257 336.566,279.660 341.814 " stroke="none" fill="#1b3b69" fill-rule="evenodd"></path><path id="path1" d="M341.400 19.226 C 336.358 20.495,328.401 25.725,326.341 29.124 C 325.849 29.936,324.882 31.320,324.191 32.200 C 320.627 36.743,319.705 47.997,322.261 55.751 C 323.937 60.834,322.929 64.598,319.226 67.094 C 316.561 68.890,311.947 67.391,305.600 62.666 C 302.694 60.503,294.948 55.898,288.800 52.680 C 287.150 51.816,285.080 50.699,284.200 50.197 C 283.320 49.695,281.250 48.880,279.600 48.386 C 277.950 47.893,274.890 46.782,272.800 45.918 C 265.794 43.023,248.190 39.277,236.400 38.173 C 222.653 36.886,203.770 38.679,189.800 42.598 C 187.820 43.153,184.924 43.877,183.365 44.206 C 181.806 44.536,179.456 45.326,178.143 45.962 C 176.830 46.598,174.326 47.625,172.578 48.244 C 164.555 51.084,145.723 61.734,139.838 66.759 C 137.879 68.431,135.089 70.705,133.638 71.810 C 128.531 75.702,116.344 88.457,112.500 93.933 C 110.375 96.960,110.948 99.837,114.018 101.562 C 117.170 103.334,118.750 102.579,122.731 97.400 C 140.604 74.144,173.067 54.585,200.686 50.431 C 202.274 50.192,204.614 49.711,205.886 49.361 C 208.986 48.509,235.056 48.061,241.026 48.757 C 266.811 51.765,290.456 62.146,312.598 80.181 C 316.677 83.503,317.035 83.385,324.351 76.299 C 331.454 69.419,332.509 69.032,338.605 71.066 C 341.427 72.008,342.453 72.137,347.400 72.166 L 353.000 72.200 357.400 70.295 C 380.854 60.138,378.967 28.451,354.400 19.925 C 351.809 19.026,343.888 18.600,341.400 19.226 M353.299 25.425 C 368.202 29.041,373.499 49.623,362.400 60.787 C 350.139 73.120,329.505 66.492,326.533 49.264 C 323.826 33.575,337.328 21.550,353.299 25.425 M50.750 84.748 C 41.451 88.436,38.691 90.772,34.959 98.110 C 26.507 114.732,37.199 134.827,55.437 136.594 C 63.381 137.363,70.060 135.248,77.000 129.764 C 82.510 125.410,88.862 126.688,90.417 132.463 C 90.973 134.528,90.647 136.450,88.936 141.193 C 86.422 148.159,83.600 167.012,83.600 176.833 C 83.600 185.643,84.684 187.704,88.960 187.021 C 92.520 186.453,93.388 185.038,93.759 179.200 C 94.288 170.879,95.278 161.698,96.218 156.400 C 96.745 153.430,97.359 149.740,97.581 148.200 C 97.804 146.660,98.502 144.140,99.132 142.600 C 99.763 141.060,100.409 139.080,100.569 138.200 C 100.728 137.320,101.566 134.937,102.429 132.904 C 105.151 126.498,104.630 125.799,93.200 120.507 C 87.016 117.644,86.392 116.700,84.995 108.087 C 83.704 100.125,83.234 98.779,80.771 95.982 C 80.296 95.442,78.969 93.740,77.823 92.200 C 74.152 87.267,70.148 84.800,65.814 84.800 C 64.367 84.800,62.352 84.465,61.000 84.000 C 57.516 82.801,55.240 82.968,50.750 84.748 M67.161 90.761 C 81.125 97.863,84.235 114.237,73.630 124.825 C 60.117 138.317,37.554 128.953,37.607 109.874 C 37.649 94.656,54.013 84.074,67.161 90.761 M337.159 100.113 C 333.872 102.322,334.134 104.101,338.858 111.603 C 347.837 125.867,355.414 148.820,356.894 166.246 C 357.843 177.419,357.176 196.343,355.604 202.800 C 355.417 203.570,355.138 205.370,354.984 206.800 C 354.831 208.230,354.193 210.840,353.568 212.600 C 352.943 214.360,351.970 217.650,351.406 219.911 C 349.151 228.950,345.494 236.518,335.419 253.000 C 330.312 261.354,312.931 279.796,305.200 285.064 C 299.096 289.224,292.245 293.470,289.072 295.062 C 287.052 296.075,284.643 297.424,283.717 298.060 C 282.791 298.695,280.191 299.857,277.938 300.641 C 275.685 301.425,272.988 302.499,271.945 303.028 C 270.901 303.557,268.642 304.371,266.924 304.837 C 259.664 306.805,258.760 309.267,261.384 319.925 C 263.117 326.963,262.768 328.679,258.974 331.770 C 249.672 339.347,247.038 347.106,249.346 360.134 C 250.247 365.218,251.330 367.255,255.414 371.546 C 268.187 384.968,289.134 382.511,298.507 366.492 C 305.044 355.318,300.048 336.224,289.198 330.921 C 286.152 329.432,279.915 326.925,277.600 326.260 C 272.134 324.688,269.820 320.303,272.038 315.721 C 273.026 313.680,274.465 312.755,280.200 310.472 C 289.791 306.655,301.636 300.077,308.346 294.842 C 310.395 293.243,313.438 291.008,315.109 289.874 C 324.577 283.451,341.307 263.982,348.499 251.019 C 349.603 249.028,351.081 246.500,351.783 245.400 C 353.117 243.310,358.400 232.058,358.400 231.307 C 358.400 231.069,359.315 228.388,360.433 225.350 C 362.719 219.137,364.466 212.603,365.374 206.867 C 365.711 204.740,366.368 200.660,366.836 197.800 C 368.419 188.107,368.200 168.216,366.404 158.600 C 365.952 156.180,365.216 152.130,364.769 149.600 C 363.048 139.854,355.403 119.235,351.121 112.787 C 350.615 112.024,349.429 109.838,348.488 107.929 C 344.928 100.716,340.653 97.766,337.159 100.113 M46.875 201.227 C 39.812 202.618,37.865 203.687,32.365 209.198 C 9.001 232.607,39.961 267.157,67.786 248.726 C 71.057 246.560,76.250 238.393,77.024 234.200 C 78.225 227.695,80.791 224.664,85.527 224.154 C 89.230 223.756,91.211 225.723,93.831 232.400 C 104.168 258.737,125.125 283.917,149.407 299.171 C 158.427 304.837,171.301 310.994,180.400 313.992 C 190.312 317.258,197.429 318.966,203.775 319.603 C 206.181 319.845,209.336 320.292,210.787 320.597 C 212.441 320.945,216.748 321.198,222.342 321.276 L 231.259 321.400 232.408 320.118 C 236.461 315.594,232.899 311.329,225.200 311.486 C 222.890 311.533,219.110 311.311,216.800 310.992 C 214.490 310.673,210.080 310.128,207.000 309.782 C 198.352 308.809,189.757 306.694,180.000 303.139 C 169.591 299.346,168.315 298.791,165.377 296.779 C 164.485 296.168,161.431 294.382,158.592 292.811 C 155.753 291.240,152.164 289.001,150.615 287.835 C 149.067 286.670,146.684 285.052,145.321 284.241 C 143.957 283.431,142.274 282.051,141.580 281.175 C 140.887 280.299,139.195 278.780,137.820 277.800 C 136.390 276.779,133.114 273.526,130.161 270.193 C 127.322 266.990,123.684 262.892,122.076 261.085 C 120.468 259.278,118.250 256.313,117.147 254.496 C 116.044 252.678,114.732 250.698,114.231 250.096 C 111.345 246.621,102.678 227.933,100.644 220.800 C 98.678 213.905,96.899 212.348,92.047 213.276 C 79.031 215.766,74.321 215.175,71.428 210.686 C 67.192 204.115,55.361 199.557,46.875 201.227 M58.168 207.587 C 78.547 214.618,76.208 244.513,54.972 248.439 C 37.298 251.706,24.236 233.261,32.849 217.200 C 37.578 208.382,48.478 204.243,58.168 207.587 M281.848 333.166 C 294.107 338.733,298.818 350.084,293.966 362.362 C 287.896 377.724,263.724 378.434,256.136 363.473 C 250.232 351.831,255.753 337.656,267.854 333.386 C 271.509 332.096,279.225 331.975,281.848 333.166 " stroke="none" fill="#6db443" fill-rule="evenodd"></path><path id="path2" d="M342.895 36.445 C 334.832 40.436,335.449 52.507,343.846 55.034 C 354.145 58.133,361.829 46.959,354.978 38.843 C 352.380 35.765,346.590 34.616,342.895 36.445 M55.164 100.548 C 48.559 102.909,46.369 112.729,51.453 117.192 C 60.173 124.849,72.927 115.576,67.690 105.388 C 65.437 101.006,59.885 98.861,55.164 100.548 M181.300 120.012 C 180.032 120.522,180.146 122.016,181.610 124.093 C 184.754 128.553,185.776 125.983,157.710 184.200 C 154.422 191.020,147.885 204.610,143.184 214.400 L 134.635 232.200 131.918 234.843 C 127.008 239.618,126.952 239.600,146.800 239.600 C 166.088 239.600,166.205 239.570,162.813 235.465 C 160.746 232.964,160.499 231.532,161.542 228.111 C 162.675 224.395,169.244 211.230,170.579 210.000 L 171.664 209.000 198.225 209.000 L 224.785 209.000 225.946 210.200 C 227.323 211.622,235.121 227.606,235.462 229.702 C 235.826 231.949,235.317 233.719,233.794 235.498 C 232.290 237.255,232.046 238.408,233.008 239.206 C 233.804 239.868,270.687 239.792,271.488 239.127 C 272.457 238.323,271.994 237.373,269.613 235.277 C 266.574 232.602,264.396 229.059,258.620 217.400 C 209.781 118.814,213.994 128.358,217.262 123.695 C 218.630 121.743,218.613 120.833,217.196 120.116 C 216.003 119.512,182.782 119.417,181.300 120.012 M298.780 120.330 C 287.018 123.401,281.349 138.090,287.980 148.312 C 298.469 164.480,323.241 156.437,322.313 137.165 C 321.736 125.180,310.631 117.236,298.780 120.330 M200.515 154.100 C 201.040 154.815,202.970 158.730,204.802 162.800 C 210.343 175.106,214.238 183.657,215.553 186.400 C 217.075 189.575,217.120 190.760,215.768 192.030 L 214.735 193.000 198.450 193.000 C 176.210 193.000,177.260 194.156,184.817 178.000 C 186.618 174.150,189.712 167.490,191.693 163.200 C 195.874 154.148,196.743 152.800,198.400 152.800 C 199.245 152.800,199.818 153.152,200.515 154.100 M287.536 166.023 C 284.716 166.484,284.313 168.083,286.580 169.812 C 287.339 170.391,288.374 171.705,288.880 172.732 L 289.800 174.600 289.913 201.952 C 290.042 233.122,290.129 232.131,287.018 235.183 C 285.140 237.025,284.740 238.321,285.782 239.185 C 286.527 239.804,320.496 239.791,321.653 239.172 C 322.809 238.553,322.545 237.341,320.854 235.491 C 317.557 231.886,317.800 234.506,317.800 202.600 L 317.800 174.200 318.864 172.400 C 319.450 171.410,320.485 170.071,321.164 169.425 C 322.562 168.096,322.745 167.013,321.668 166.437 C 320.881 166.015,289.879 165.640,287.536 166.023 M48.797 217.574 C 42.609 219.456,39.333 226.291,41.989 231.777 C 46.635 241.375,61.200 238.281,61.200 227.694 C 61.200 220.810,54.943 215.704,48.797 217.574 M272.400 343.550 C 262.174 346.916,262.123 360.088,272.325 363.054 C 281.689 365.776,289.241 353.997,282.820 346.684 C 280.583 344.136,275.377 342.570,272.400 343.550 " stroke="none" fill="#e9edf2" fill-rule="evenodd"></path><path id="path3" d="M352.000 18.915 C 352.000 19.036,352.945 19.445,354.100 19.824 C 362.018 22.419,367.366 27.030,370.966 34.366 C 372.195 36.870,373.214 39.297,373.232 39.759 C 373.249 40.222,373.355 40.371,373.468 40.090 C 373.979 38.820,371.881 32.378,370.404 30.682 C 369.598 29.757,368.491 28.331,367.942 27.514 C 366.641 25.574,364.418 23.820,361.200 22.194 C 359.770 21.472,357.840 20.486,356.910 20.004 C 355.312 19.174,352.000 18.440,352.000 18.915 M339.000 19.562 C 335.643 20.745,332.603 22.333,331.551 23.452 C 330.874 24.173,331.468 23.961,334.030 22.568 C 335.883 21.560,338.210 20.400,339.200 19.990 C 340.894 19.288,340.736 18.950,339.000 19.562 M325.734 28.902 C 324.614 30.155,323.380 32.051,323.066 33.000 C 322.875 33.575,323.090 33.463,323.829 32.600 C 326.075 29.980,327.849 26.534,325.734 28.902 M343.065 33.819 C 337.730 35.776,334.470 40.913,334.887 46.705 C 336.020 62.417,359.894 61.357,359.778 45.600 C 359.715 37.092,350.963 30.923,343.065 33.819 M351.816 36.547 C 358.066 39.457,359.532 47.906,354.609 52.645 C 349.645 57.425,341.179 56.228,338.241 50.333 C 333.893 41.607,342.944 32.415,351.816 36.547 M215.024 37.445 C 211.575 38.068,210.284 38.649,213.200 38.266 C 214.190 38.136,218.690 37.893,223.200 37.727 C 229.376 37.498,230.807 37.357,229.000 37.155 C 224.966 36.704,218.371 36.841,215.024 37.445 M232.128 37.484 C 232.264 37.704,234.017 38.007,236.023 38.159 C 238.029 38.310,240.239 38.518,240.935 38.621 L 242.200 38.807 240.800 38.152 C 239.198 37.401,231.721 36.826,232.128 37.484 M320.400 39.105 C 318.315 42.222,317.866 45.148,319.101 47.576 C 320.291 49.919,320.703 49.551,320.954 45.921 C 321.195 42.440,321.469 37.596,321.426 37.605 C 321.411 37.608,320.950 38.283,320.400 39.105 M198.600 39.395 C 197.301 40.070,195.689 40.508,194.000 40.645 C 190.757 40.907,187.754 41.728,185.341 43.011 C 182.854 44.334,183.771 44.258,189.660 42.656 C 192.377 41.917,197.518 40.800,201.084 40.174 C 204.651 39.548,207.531 39.004,207.484 38.966 C 206.539 38.186,200.350 38.485,198.600 39.395 M247.300 39.130 C 247.008 39.315,249.500 39.992,253.300 40.759 C 263.710 42.859,267.887 43.971,273.000 46.000 C 277.640 47.842,280.000 48.599,280.000 48.246 C 280.000 47.765,276.167 45.940,273.187 45.001 C 271.324 44.414,268.540 43.461,267.000 42.884 C 265.460 42.307,263.840 41.781,263.400 41.715 C 261.202 41.384,257.922 40.615,255.050 39.755 C 251.891 38.810,248.265 38.517,247.300 39.130 M177.514 45.391 C 176.476 45.676,172.857 47.190,169.470 48.755 C 166.083 50.320,163.084 51.600,162.805 51.600 C 161.498 51.600,150.204 58.303,148.600 60.031 C 147.271 61.463,147.333 61.437,151.600 58.801 C 155.448 56.424,167.081 50.420,170.200 49.203 C 179.858 45.432,182.652 43.976,177.514 45.391 M284.001 50.111 C 284.110 50.208,285.910 51.178,288.000 52.266 C 294.675 55.741,302.508 60.365,305.600 62.655 C 307.250 63.877,309.298 65.235,310.152 65.673 L 311.704 66.469 310.846 65.264 C 309.741 63.713,307.108 61.803,302.600 59.282 C 300.620 58.175,298.010 56.643,296.800 55.878 C 295.590 55.113,293.953 54.283,293.161 54.033 C 292.370 53.783,290.852 53.026,289.788 52.351 C 288.723 51.676,287.481 50.988,287.026 50.821 C 285.859 50.392,283.763 49.900,284.001 50.111 M327.035 52.266 C 327.337 53.549,329.248 57.285,329.483 57.051 C 329.567 56.967,329.158 55.704,328.574 54.245 C 327.454 51.448,326.576 50.319,327.035 52.266 M361.796 60.364 C 356.156 65.913,346.300 67.657,338.662 64.457 C 335.340 63.066,334.275 62.985,336.479 64.292 C 345.613 69.710,360.253 66.496,364.754 58.086 C 365.440 56.804,365.323 56.894,361.796 60.364 M141.599 64.729 C 138.303 66.939,134.339 70.162,133.543 71.281 L 132.617 72.580 134.209 71.391 C 135.672 70.297,141.009 65.829,142.386 64.546 C 143.159 63.825,142.836 63.900,141.599 64.729 M127.784 76.121 C 126.329 77.273,124.547 79.155,122.218 82.000 L 121.400 83.000 122.600 82.010 C 125.625 79.515,130.263 74.702,129.527 74.821 C 129.457 74.832,128.673 75.417,127.784 76.121 M61.100 82.722 C 60.055 82.789,59.200 82.985,59.200 83.159 C 59.200 83.791,63.815 84.856,66.000 84.729 L 68.200 84.600 67.200 83.922 C 65.904 83.044,63.487 82.569,61.100 82.722 M48.839 84.035 C 47.019 84.763,41.975 88.099,41.581 88.836 C 41.290 89.380,41.820 89.197,43.594 88.140 C 44.919 87.350,47.667 86.012,49.701 85.165 C 53.392 83.628,53.396 83.625,51.600 83.638 C 50.610 83.645,49.367 83.824,48.839 84.035 M118.353 86.300 C 117.353 87.345,115.946 89.010,115.224 90.000 C 113.701 92.090,114.548 91.233,118.324 86.859 C 120.857 83.925,120.871 83.667,118.353 86.300 M77.819 92.200 C 79.322 94.180,80.770 96.020,81.037 96.289 C 82.870 98.139,84.023 101.350,84.812 106.800 C 85.433 111.091,85.971 112.178,85.988 109.173 C 86.005 105.954,85.267 102.457,84.177 100.598 C 83.656 99.708,82.859 97.780,82.406 96.313 C 81.620 93.769,78.415 90.000,77.038 90.000 C 76.832 90.000,76.308 89.685,75.874 89.300 C 75.441 88.915,76.316 90.220,77.819 92.200 M34.975 96.500 C 33.757 97.945,33.038 99.512,32.650 101.571 C 32.315 103.350,32.374 103.266,34.558 98.900 C 36.574 94.869,36.632 94.535,34.975 96.500 M110.429 96.254 C 109.162 97.865,109.368 99.042,111.074 99.940 C 112.358 100.616,112.492 100.513,111.767 99.405 C 111.347 98.765,111.169 97.839,111.268 96.805 C 111.449 94.903,111.477 94.921,110.429 96.254 M338.276 98.321 C 337.134 99.377,335.711 100.547,335.114 100.921 C 333.583 101.879,333.147 102.843,333.726 103.994 C 334.322 105.179,335.214 105.539,334.938 104.484 C 333.882 100.446,339.633 97.886,343.243 100.787 C 344.099 101.475,344.798 101.984,344.795 101.919 C 344.584 96.634,341.775 95.084,338.276 98.321 M54.887 98.164 C 47.718 100.503,44.151 109.239,47.602 116.004 C 53.637 127.833,71.942 122.689,71.102 109.400 C 70.591 101.319,62.469 95.691,54.887 98.164 M62.800 100.832 C 70.870 104.485,70.803 115.704,62.691 119.214 C 53.874 123.028,45.536 114.079,49.796 105.373 C 52.070 100.724,57.992 98.656,62.800 100.832 M117.643 102.186 C 116.434 102.624,116.380 102.701,117.150 102.903 C 117.652 103.034,118.263 102.880,118.607 102.536 C 119.118 102.025,119.409 101.500,119.100 101.648 C 119.045 101.674,118.389 101.916,117.643 102.186 M348.812 108.122 C 348.795 108.578,350.381 112.000,350.610 112.000 C 350.714 112.000,350.799 111.775,350.798 111.500 C 350.796 110.947,348.832 107.607,348.812 108.122 M79.600 110.376 C 79.600 110.829,79.780 111.200,80.000 111.200 C 80.220 111.200,80.400 110.941,80.400 110.624 C 80.400 110.307,80.220 109.936,80.000 109.800 C 79.780 109.664,79.600 109.923,79.600 110.376 M179.331 117.775 C 176.651 118.958,176.448 121.647,178.800 124.800 C 181.608 128.563,180.941 131.177,173.185 146.800 C 171.492 150.210,168.170 157.050,165.803 162.000 C 163.435 166.950,158.798 176.580,155.498 183.400 C 152.198 190.220,149.163 196.574,148.754 197.521 C 148.345 198.468,146.586 202.158,144.844 205.721 C 143.103 209.284,139.506 216.649,136.852 222.086 L 132.026 231.972 129.569 233.760 C 126.114 236.274,125.503 237.326,126.125 239.693 C 126.722 241.966,127.026 242.000,147.011 242.000 L 165.262 242.000 166.431 240.831 C 168.365 238.896,167.986 237.201,164.888 233.930 C 163.582 232.551,163.508 232.327,163.683 230.330 C 163.913 227.708,169.925 214.608,171.847 212.541 L 173.094 211.200 194.047 211.153 C 221.218 211.091,222.785 211.128,223.921 211.856 C 225.237 212.699,232.819 228.099,233.087 230.472 C 233.283 232.210,233.201 232.390,231.255 234.539 C 228.329 237.771,228.118 239.810,230.545 241.401 C 232.217 242.497,271.766 242.444,273.651 241.343 C 276.610 239.615,276.080 236.947,272.249 234.289 C 268.988 232.026,266.981 229.008,261.815 218.600 C 234.626 163.815,219.606 133.275,218.954 131.450 C 217.918 128.550,218.204 126.675,219.998 124.602 C 222.509 121.701,222.551 119.704,220.136 118.121 C 218.639 117.139,181.487 116.825,179.331 117.775 M299.600 117.777 C 285.005 120.864,277.980 138.001,286.292 150.241 C 296.220 164.861,318.795 161.515,323.960 144.658 C 328.604 129.503,315.022 114.515,299.600 117.777 M92.138 120.047 C 92.984 120.493,93.776 120.757,93.899 120.634 C 94.022 120.511,93.471 120.138,92.674 119.805 C 90.624 118.948,90.317 119.086,92.138 120.047 M217.196 120.116 C 218.613 120.833,218.630 121.743,217.262 123.695 C 213.994 128.358,209.781 118.814,258.620 217.400 C 264.396 229.059,266.574 232.602,269.613 235.277 C 271.994 237.373,272.457 238.323,271.488 239.127 C 270.687 239.792,233.804 239.868,233.008 239.206 C 232.046 238.408,232.290 237.255,233.794 235.498 C 235.317 233.719,235.826 231.949,235.462 229.702 C 235.121 227.606,227.323 211.622,225.946 210.200 L 224.785 209.000 198.225 209.000 L 171.664 209.000 170.579 210.000 C 169.244 211.230,162.675 224.395,161.542 228.111 C 160.499 231.532,160.746 232.964,162.813 235.465 C 166.205 239.570,166.088 239.600,146.800 239.600 C 126.952 239.600,127.008 239.618,131.918 234.843 L 134.635 232.200 143.184 214.400 C 147.885 204.610,154.422 191.020,157.710 184.200 C 185.776 125.983,184.754 128.553,181.610 124.093 C 180.146 122.016,180.032 120.522,181.300 120.012 C 182.782 119.417,216.003 119.512,217.196 120.116 M308.216 120.212 C 326.122 124.810,327.613 148.938,310.401 155.576 C 292.042 162.655,276.809 140.309,290.090 125.778 C 294.825 120.597,301.606 118.515,308.216 120.212 M76.117 120.900 C 75.664 121.395,74.981 122.430,74.598 123.200 L 73.903 124.600 75.055 123.518 C 76.368 122.284,77.821 120.000,77.292 120.000 C 77.098 120.000,76.569 120.405,76.117 120.900 M355.200 120.913 C 355.200 121.035,355.830 122.449,356.600 124.056 C 358.062 127.106,358.484 127.251,357.331 124.308 C 356.735 122.787,355.200 120.342,355.200 120.913 M99.476 123.651 C 102.146 125.152,103.282 126.032,103.627 126.865 C 104.012 127.795,104.210 127.923,104.671 127.541 C 105.941 126.487,105.095 125.446,101.600 123.759 C 96.551 121.321,95.212 121.253,99.476 123.651 M69.283 128.057 C 68.559 128.520,68.050 128.983,68.152 129.085 C 68.254 129.188,69.024 128.805,69.862 128.236 C 71.679 127.001,71.175 126.845,69.283 128.057 M51.649 130.165 C 51.787 130.312,52.832 130.580,53.974 130.760 C 55.115 130.941,55.902 130.948,55.724 130.777 C 55.327 130.395,51.300 129.791,51.649 130.165 M360.863 135.400 C 360.862 135.620,361.103 136.430,361.400 137.200 C 361.697 137.970,361.945 138.330,361.952 138.000 C 361.958 137.670,361.717 136.860,361.414 136.200 C 361.112 135.540,360.864 135.180,360.863 135.400 M98.039 145.436 C 97.431 147.625,97.449 149.302,98.069 148.233 C 98.742 147.075,99.137 144.945,98.785 144.376 C 98.582 144.047,98.322 144.414,98.039 145.436 M364.859 150.000 C 364.846 150.330,365.079 151.680,365.376 153.000 C 365.812 154.931,365.920 155.127,365.928 154.000 C 365.938 152.644,364.909 148.792,364.859 150.000 M85.849 152.617 C 85.711 152.975,85.511 154.288,85.404 155.534 L 85.208 157.800 85.793 155.022 C 86.353 152.364,86.379 151.235,85.849 152.617 M196.268 154.100 C 195.733 154.815,193.674 158.910,191.693 163.200 C 189.712 167.490,186.618 174.150,184.817 178.000 C 177.260 194.156,176.210 193.000,198.450 193.000 L 214.735 193.000 215.768 192.030 C 217.120 190.760,217.075 189.575,215.553 186.400 C 214.238 183.657,210.343 175.106,204.802 162.800 C 200.905 154.144,200.045 152.800,198.400 152.800 C 197.558 152.800,196.974 153.156,196.268 154.100 M199.327 157.519 C 199.685 157.914,201.038 160.569,202.335 163.419 C 203.631 166.269,206.696 172.995,209.146 178.368 C 213.924 188.847,214.194 189.794,212.574 190.410 C 211.259 190.910,185.590 190.928,184.281 190.431 C 182.222 189.648,182.880 187.835,192.994 166.400 C 197.634 156.566,198.000 156.053,199.327 157.519 M287.299 163.467 C 287.134 163.504,286.305 163.651,285.455 163.794 C 281.276 164.495,280.827 167.711,284.404 171.333 C 287.751 174.722,287.595 173.169,287.598 203.092 C 287.600 233.010,287.739 231.606,284.516 234.247 C 281.304 236.879,280.950 240.030,283.705 241.454 C 285.005 242.127,320.745 242.436,322.860 241.794 C 326.558 240.670,326.528 237.583,322.785 233.964 C 319.878 231.153,319.923 231.697,320.071 201.800 C 320.217 172.386,319.986 174.433,323.550 170.925 C 326.343 168.176,326.375 165.635,323.635 164.218 C 322.677 163.723,289.235 163.032,287.299 163.467 M321.668 166.437 C 322.745 167.013,322.562 168.096,321.164 169.425 C 320.485 170.071,319.450 171.410,318.864 172.400 L 317.800 174.200 317.800 202.600 C 317.800 234.506,317.557 231.886,320.854 235.491 C 322.545 237.341,322.809 238.553,321.653 239.172 C 320.496 239.791,286.527 239.804,285.782 239.185 C 284.740 238.321,285.140 237.025,287.018 235.183 C 290.129 232.131,290.042 233.122,289.913 201.952 L 289.800 174.600 288.880 172.732 C 288.374 171.705,287.339 170.391,286.580 169.812 C 284.313 168.083,284.716 166.484,287.536 166.023 C 289.879 165.640,320.881 166.015,321.668 166.437 M367.737 170.200 C 367.739 171.960,367.809 172.630,367.893 171.689 C 367.978 170.749,367.977 169.309,367.891 168.489 C 367.805 167.670,367.736 168.440,367.737 170.200 M83.448 184.551 C 82.958 186.503,83.524 187.600,85.020 187.600 C 86.712 187.600,87.071 187.052,85.768 186.458 C 85.214 186.206,84.525 185.438,84.236 184.751 L 83.711 183.502 83.448 184.551 M93.200 183.889 C 93.200 184.136,92.722 184.907,92.137 185.602 L 91.074 186.865 92.230 186.733 C 93.582 186.577,94.518 184.758,93.678 183.918 C 93.341 183.581,93.200 183.573,93.200 183.889 M367.241 195.126 C 366.954 196.735,366.811 198.145,366.925 198.258 C 367.233 198.566,368.078 194.140,367.910 193.102 C 367.829 192.606,367.528 193.517,367.241 195.126 M48.181 199.589 C 46.528 199.938,40.672 202.406,40.917 202.650 C 40.992 202.725,42.301 202.423,43.826 201.979 C 50.657 199.992,55.838 200.509,62.477 203.839 C 66.875 206.044,67.670 206.163,65.700 204.321 C 62.834 201.639,52.146 198.753,48.181 199.589 M354.442 205.900 C 354.228 206.725,353.951 208.480,353.824 209.800 C 353.501 213.191,354.569 210.517,354.991 206.880 C 355.312 204.109,355.035 203.613,354.442 205.900 M35.147 205.603 C 32.421 207.044,25.556 216.089,26.484 217.017 C 26.558 217.092,27.148 216.128,27.794 214.876 C 28.540 213.433,30.396 211.173,32.868 208.700 C 35.012 206.555,36.729 204.808,36.683 204.818 C 36.637 204.827,35.946 205.181,35.147 205.603 M71.231 210.372 C 72.178 212.058,73.732 213.600,74.484 213.600 C 75.269 213.600,72.939 210.205,71.631 209.443 L 70.262 208.646 71.231 210.372 M94.200 211.391 C 93.042 211.961,91.476 212.380,90.480 212.387 C 88.468 212.402,85.593 213.682,87.058 213.911 C 87.531 213.985,89.277 213.788,90.939 213.474 C 94.602 212.782,95.761 212.948,97.662 214.434 C 99.251 215.676,99.516 215.497,99.375 213.282 C 99.195 210.429,97.451 209.792,94.200 211.391 M47.980 215.321 C 36.748 218.498,35.393 233.926,45.896 239.064 C 54.855 243.448,65.491 235.171,63.614 225.276 C 62.251 218.087,54.853 213.377,47.980 215.321 M54.451 217.811 C 61.318 220.151,63.649 229.653,58.537 234.471 C 53.215 239.487,45.080 238.162,41.989 231.777 C 38.220 223.991,46.233 215.011,54.451 217.811 M350.455 221.900 C 350.250 222.285,349.431 224.310,348.636 226.400 C 347.057 230.549,346.272 232.263,344.969 234.401 C 343.963 236.052,342.200 240.734,342.480 241.013 C 342.685 241.219,347.855 230.612,349.148 227.332 C 350.675 223.459,351.539 219.866,350.455 221.900 M101.214 222.837 C 101.167 223.654,104.623 232.000,105.008 232.000 C 105.373 232.000,103.827 227.697,102.589 225.271 C 101.840 223.802,101.221 222.707,101.214 222.837 M77.654 231.400 C 77.614 231.620,77.418 232.500,77.220 233.356 C 76.899 234.740,76.925 234.846,77.459 234.312 C 77.840 233.931,77.999 233.218,77.894 232.356 C 77.803 231.610,77.695 231.180,77.654 231.400 M106.867 236.477 C 107.572 237.950,108.285 239.071,108.451 238.969 C 108.947 238.662,108.049 236.625,106.776 235.165 L 105.584 233.800 106.867 236.477 M34.767 241.077 C 35.456 242.265,36.108 242.941,37.959 244.386 L 39.717 245.760 38.627 244.112 C 37.520 242.440,33.911 239.602,34.767 241.077 M65.970 242.242 C 65.436 242.816,64.222 243.823,63.272 244.481 C 62.321 245.139,61.638 245.771,61.753 245.886 C 62.072 246.206,65.821 243.332,66.564 242.199 C 67.406 240.914,67.191 240.929,65.970 242.242 M111.476 245.467 C 111.776 246.261,112.674 247.729,115.861 252.630 C 119.293 257.908,120.823 259.903,123.776 262.948 C 125.329 264.550,126.127 265.307,125.548 264.631 C 124.969 263.954,123.105 261.420,121.404 259.000 C 119.704 256.580,117.893 254.150,117.379 253.600 C 116.866 253.050,115.467 250.897,114.271 248.816 C 112.307 245.401,110.745 243.528,111.476 245.467 M40.000 245.846 C 40.000 248.058,53.757 249.424,58.000 247.635 C 58.824 247.287,58.718 247.265,57.400 247.507 C 53.579 248.207,45.955 247.775,42.900 246.684 C 41.305 246.115,40.000 245.738,40.000 245.846 M337.365 249.011 C 336.773 249.787,336.377 250.511,336.486 250.619 C 336.594 250.728,337.162 250.093,337.747 249.208 C 339.060 247.224,338.822 247.101,337.365 249.011 M334.163 253.556 C 331.280 257.016,326.197 263.838,325.010 265.839 C 323.908 267.698,329.414 261.698,331.835 258.402 C 333.886 255.610,336.602 251.200,336.271 251.200 C 336.191 251.200,335.243 252.260,334.163 253.556 M133.014 273.391 C 134.659 275.399,137.242 277.691,137.532 277.401 C 138.034 276.900,134.510 273.084,132.663 272.129 C 131.481 271.518,131.482 271.521,133.014 273.391 M310.789 279.467 C 308.355 281.108,304.014 284.528,302.000 286.389 L 299.800 288.423 302.000 287.132 C 305.217 285.244,307.936 283.154,310.185 280.841 C 312.275 278.692,312.417 278.369,310.789 279.467 M141.367 280.934 C 142.209 281.961,144.000 283.464,145.349 284.274 C 146.697 285.084,148.250 286.015,148.800 286.343 C 149.350 286.672,148.643 285.747,147.230 284.288 C 145.780 282.793,143.608 281.076,142.248 280.351 L 139.837 279.066 141.367 280.934 M152.185 288.963 C 152.836 289.514,154.276 290.431,155.385 291.000 C 158.131 292.411,156.268 290.859,153.170 289.155 C 151.173 288.057,151.094 288.042,152.185 288.963 M295.400 290.623 C 293.860 291.402,291.880 292.682,291.000 293.466 L 289.400 294.893 291.173 294.001 C 292.981 293.092,298.400 289.598,298.400 289.341 C 298.400 289.112,298.324 289.145,295.400 290.623 M164.143 296.014 C 168.958 299.099,169.153 299.186,180.000 303.139 C 184.750 304.870,193.990 307.600,197.600 308.340 C 202.536 309.352,205.588 309.736,204.800 309.247 C 204.086 308.805,199.918 308.000,198.338 308.000 C 197.725 308.000,196.273 307.571,195.112 307.046 C 193.950 306.521,191.470 305.794,189.600 305.429 C 187.636 305.046,184.790 304.098,182.861 303.183 C 181.024 302.312,178.381 301.335,176.987 301.012 C 175.593 300.688,173.496 299.815,172.326 299.072 C 171.157 298.328,169.161 297.334,167.892 296.862 C 166.622 296.391,164.693 295.554,163.605 295.002 C 160.511 293.435,160.714 293.817,164.143 296.014 M282.997 297.119 C 281.895 297.500,280.365 298.272,279.597 298.836 C 278.073 299.953,264.437 304.985,261.329 305.577 C 258.534 306.110,258.021 306.377,257.753 307.444 C 257.428 308.740,257.815 309.966,259.002 311.400 L 259.996 312.600 259.998 311.284 C 260.003 307.955,261.874 306.214,266.924 304.840 C 268.642 304.372,270.901 303.557,271.945 303.028 C 272.988 302.499,275.674 301.429,277.912 300.650 C 280.151 299.871,282.929 298.596,284.086 297.817 C 286.392 296.263,286.070 296.056,282.997 297.119 M230.400 309.778 C 229.135 310.129,225.923 310.240,219.600 310.151 L 210.600 310.025 214.200 310.645 C 216.180 310.986,220.410 311.298,223.600 311.337 C 232.901 311.452,236.683 315.075,232.584 319.946 C 231.725 320.967,231.684 321.146,232.257 321.366 C 234.079 322.066,235.103 320.455,234.647 317.605 C 234.510 316.749,234.596 315.127,234.837 314.002 C 235.387 311.439,235.104 310.267,233.791 309.669 C 232.607 309.129,232.755 309.125,230.400 309.778 M271.234 319.800 C 271.222 320.460,271.387 321.270,271.600 321.600 C 272.106 322.382,272.106 320.576,271.600 319.400 C 271.305 318.713,271.253 318.770,271.234 319.800 M283.600 328.417 C 289.665 331.012,290.695 331.611,293.505 334.176 L 296.161 336.600 294.781 334.739 C 292.483 331.642,285.753 327.777,281.400 327.056 C 280.220 326.861,280.797 327.218,283.600 328.417 M255.287 334.624 C 254.541 335.147,252.907 337.600,253.305 337.600 C 253.374 337.600,254.108 336.790,254.935 335.800 C 256.579 333.834,256.622 333.689,255.287 334.624 M298.151 340.646 C 300.931 346.270,301.365 348.054,301.383 353.928 C 301.397 358.450,301.473 359.085,301.882 358.128 C 303.849 353.525,301.470 342.223,297.814 338.808 C 296.779 337.841,296.788 337.887,298.151 340.646 M271.898 341.344 C 260.393 344.572,259.099 359.562,269.867 364.863 C 280.363 370.030,291.329 358.564,286.083 347.908 C 283.420 342.498,277.518 339.767,271.898 341.344 M279.813 344.449 C 287.093 348.085,286.870 358.799,279.440 362.376 C 272.635 365.652,264.800 360.906,264.800 353.509 C 264.800 345.735,272.764 340.929,279.813 344.449 M248.303 347.600 C 247.831 349.217,247.915 350.389,248.438 349.490 C 248.665 349.099,248.793 348.289,248.723 347.690 L 248.595 346.600 248.303 347.600 M253.600 353.400 C 253.600 354.856,253.735 355.964,253.900 355.862 C 254.381 355.564,254.488 351.301,254.021 351.013 C 253.743 350.841,253.600 351.649,253.600 353.400 M248.417 356.200 C 248.388 356.420,248.220 357.348,248.043 358.263 C 247.697 360.049,248.370 362.400,249.227 362.400 C 249.556 362.400,249.614 361.770,249.422 360.241 C 249.147 358.036,248.510 355.478,248.417 356.200 M291.386 365.900 C 290.776 366.725,289.720 368.015,289.038 368.766 L 287.800 370.133 289.000 369.305 C 290.385 368.350,291.598 367.066,292.593 365.500 C 293.641 363.851,292.661 364.175,291.386 365.900 M270.200 373.979 C 271.416 374.310,275.073 374.526,274.767 374.249 C 274.675 374.166,273.340 373.998,271.800 373.875 C 270.034 373.735,269.443 373.773,270.200 373.979 " stroke="none" fill="#62906b" fill-rule="evenodd"></path><path id="path4" d="M340.709 16.216 C 323.378 20.113,313.283 38.046,318.538 55.600 C 319.889 60.113,319.803 62.122,318.202 63.499 C 316.310 65.127,315.271 64.827,310.200 61.191 C 298.962 53.132,284.577 45.928,270.400 41.260 C 262.086 38.522,243.591 35.039,235.836 34.750 C 184.804 32.850,142.404 51.231,112.762 88.104 C 105.454 97.195,105.073 99.032,109.677 102.973 C 115.745 108.167,119.275 107.798,123.940 101.481 C 141.435 77.794,176.499 56.624,203.259 53.593 C 205.317 53.360,208.080 52.880,209.400 52.525 C 213.776 51.351,236.453 51.624,244.600 52.950 C 256.174 54.833,263.651 56.872,273.400 60.803 C 275.160 61.513,277.832 62.518,279.338 63.036 C 284.973 64.975,299.810 74.706,311.404 84.066 C 316.408 88.106,317.920 87.706,325.428 80.359 C 332.777 73.167,333.482 72.855,338.451 74.591 C 340.974 75.472,341.976 75.586,347.543 75.621 L 353.800 75.661 358.046 73.869 C 364.211 71.267,364.705 70.966,367.945 67.841 C 390.034 46.534,370.504 9.515,340.709 16.216 M356.815 19.956 C 357.797 20.464,359.770 21.472,361.200 22.194 C 364.418 23.820,366.641 25.574,367.942 27.514 C 368.491 28.331,369.601 29.759,370.409 30.688 C 373.779 34.557,375.141 46.687,372.955 53.366 C 370.339 61.356,365.249 66.896,357.400 70.295 L 353.000 72.200 347.400 72.166 C 342.453 72.137,341.427 72.008,338.605 71.066 C 332.509 69.032,331.454 69.419,324.351 76.299 C 316.957 83.461,316.651 83.572,312.921 80.470 C 291.421 62.592,266.897 51.775,241.026 48.757 C 235.056 48.061,208.986 48.509,205.886 49.361 C 204.614 49.711,202.274 50.192,200.686 50.431 C 172.630 54.651,140.981 73.885,122.085 98.200 C 117.632 103.930,118.046 103.819,112.568 100.762 C 109.050 98.799,108.819 98.089,110.922 95.701 C 111.649 94.876,113.124 92.940,114.199 91.400 C 115.275 89.860,117.267 87.430,118.626 86.000 C 119.985 84.570,122.197 82.077,123.542 80.459 C 124.886 78.842,127.500 76.376,129.351 74.981 C 131.201 73.585,133.100 71.902,133.570 71.242 C 134.633 69.750,139.599 65.980,144.044 63.291 C 145.890 62.175,147.940 60.694,148.600 60.000 C 150.234 58.283,161.530 51.600,162.799 51.600 C 163.074 51.600,166.202 50.264,169.750 48.631 C 174.240 46.564,177.231 45.453,179.593 44.976 C 181.459 44.599,183.922 43.783,185.067 43.163 C 187.672 41.754,190.643 40.917,194.000 40.645 C 195.642 40.512,197.306 40.069,198.516 39.443 C 200.293 38.524,200.761 38.464,204.916 38.609 C 208.529 38.736,210.022 38.606,212.600 37.938 C 217.915 36.560,237.866 36.739,241.000 38.193 C 242.292 38.792,243.486 38.926,247.200 38.885 C 251.155 38.843,252.366 38.997,255.841 39.984 C 258.063 40.616,260.763 41.274,261.841 41.447 C 262.918 41.620,263.890 41.775,264.000 41.793 C 264.110 41.811,265.460 42.299,267.000 42.879 C 268.540 43.459,271.325 44.414,273.188 45.001 C 275.051 45.588,277.751 46.763,279.188 47.612 C 280.625 48.461,283.180 49.604,284.867 50.151 C 286.554 50.698,288.646 51.616,289.515 52.191 C 290.384 52.766,292.064 53.604,293.248 54.052 C 294.431 54.500,295.940 55.268,296.600 55.759 C 297.260 56.250,299.240 57.422,301.000 58.363 C 305.745 60.899,309.473 63.487,310.701 65.097 C 316.358 72.514,325.382 65.218,322.261 55.751 C 321.689 54.018,321.106 51.846,320.964 50.925 C 320.822 50.003,320.449 49.151,320.135 49.030 C 317.882 48.166,317.944 42.442,320.240 39.397 C 320.739 38.735,321.634 36.845,322.228 35.197 C 323.938 30.455,331.358 22.373,335.089 21.190 C 335.920 20.927,337.009 20.454,337.510 20.140 C 340.055 18.542,353.830 18.411,356.815 19.956 M344.709 24.849 C 335.097 25.860,328.582 32.015,326.473 42.074 C 325.800 45.282,326.206 50.203,327.247 51.457 C 327.481 51.738,328.179 53.273,328.800 54.867 C 330.316 58.764,333.830 62.716,336.640 63.684 C 337.718 64.055,339.680 64.746,341.000 65.219 C 349.791 68.370,362.104 63.270,366.385 54.704 C 373.784 39.896,361.572 23.076,344.709 24.849 M351.800 28.544 C 360.196 30.786,366.678 40.480,365.039 48.339 C 361.650 64.592,341.319 68.984,332.560 55.355 C 323.779 41.692,336.204 24.378,351.800 28.544 M53.200 80.205 C 35.040 84.647,25.385 100.477,29.579 118.934 C 31.319 126.590,40.137 135.779,48.400 138.546 C 58.354 141.880,69.700 139.815,78.560 133.058 C 85.080 128.085,88.195 131.335,85.596 140.401 C 81.391 155.070,78.587 183.594,80.926 187.918 C 82.248 190.362,83.624 190.873,88.400 190.695 C 95.449 190.431,96.574 189.236,96.981 181.577 C 97.551 170.862,98.819 159.422,100.011 154.247 C 100.675 151.361,101.413 148.100,101.651 147.000 C 102.309 143.948,104.587 136.833,106.176 132.859 C 109.248 125.181,108.539 123.902,98.618 119.228 C 89.616 114.986,89.204 114.589,89.195 110.140 C 89.176 100.820,82.700 89.255,74.840 84.504 C 68.418 80.623,59.077 78.767,53.200 80.205 M67.959 84.422 C 68.937 85.070,69.957 85.600,70.227 85.600 C 70.496 85.600,72.096 86.590,73.782 87.800 C 75.469 89.010,76.976 90.000,77.131 90.000 C 78.428 90.000,81.645 93.850,82.406 96.313 C 82.859 97.780,83.662 99.719,84.191 100.621 C 85.411 102.702,86.168 106.997,85.872 110.155 C 85.445 114.720,87.180 117.736,91.072 119.193 C 92.313 119.657,93.800 120.373,94.377 120.784 C 94.955 121.195,96.051 121.653,96.814 121.801 C 101.488 122.711,106.245 126.235,104.619 127.584 C 104.279 127.867,104.000 128.348,104.000 128.653 C 104.000 128.958,103.297 130.871,102.438 132.904 C 101.579 134.937,100.755 137.230,100.606 138.000 C 100.457 138.770,100.008 140.304,99.608 141.408 C 99.208 142.513,98.880 144.115,98.880 144.969 C 98.880 145.823,98.511 147.349,98.060 148.361 C 96.381 152.125,94.048 169.828,93.801 180.672 C 93.665 186.659,93.608 186.840,91.870 186.771 C 91.171 186.743,89.113 186.946,87.296 187.223 C 85.479 187.499,83.881 187.614,83.745 187.478 C 83.095 186.828,83.588 168.926,84.386 164.196 C 84.831 161.558,85.201 158.500,85.207 157.400 C 85.214 156.300,85.412 154.680,85.647 153.800 C 85.883 152.920,86.484 150.400,86.984 148.200 C 88.184 142.917,89.000 140.063,89.727 138.600 C 94.017 129.976,84.816 123.588,77.000 129.764 C 57.220 145.394,32.014 133.532,32.026 108.600 C 32.031 99.956,32.961 98.094,42.200 88.246 C 42.640 87.777,44.317 86.601,45.927 85.634 L 48.855 83.875 55.127 83.343 C 58.577 83.050,61.760 82.757,62.200 82.693 C 63.659 82.479,66.158 83.229,67.959 84.422 M54.400 89.178 C 42.967 91.256,35.650 103.052,38.214 115.274 C 39.626 122.005,46.286 128.906,52.419 129.993 C 53.839 130.244,55.648 130.639,56.440 130.871 C 58.314 131.417,64.383 130.643,66.600 129.575 C 71.603 127.163,73.242 125.857,74.598 123.200 C 75.103 122.210,76.065 120.913,76.735 120.317 C 79.966 117.448,80.820 108.923,78.464 103.075 C 74.324 92.804,64.781 87.292,54.400 89.178 M64.899 93.679 C 72.296 96.492,76.767 103.506,76.307 111.575 C 75.589 124.174,61.007 132.042,50.082 125.724 C 31.205 114.809,44.553 85.941,64.899 93.679 M337.794 95.643 C 330.737 99.374,329.127 103.013,332.319 108.019 C 332.944 108.999,334.376 111.240,335.501 113.000 C 337.648 116.357,339.820 120.568,342.003 125.600 C 342.718 127.250,343.904 129.797,344.637 131.260 C 351.688 145.332,356.405 176.519,353.853 192.194 C 353.530 194.177,353.054 197.240,352.795 199.000 C 346.827 239.542,320.559 275.535,283.394 294.094 C 280.097 295.740,276.680 297.320,275.800 297.604 C 274.920 297.888,272.850 298.735,271.200 299.486 C 269.550 300.238,266.360 301.354,264.112 301.966 C 255.698 304.260,254.990 305.750,257.261 316.400 C 257.941 319.590,258.582 323.252,258.686 324.537 L 258.875 326.874 255.307 330.537 C 241.667 344.539,240.913 361.868,253.388 374.609 C 275.674 397.371,313.532 374.386,303.436 344.223 C 299.590 332.734,293.182 327.154,279.548 323.422 C 273.174 321.677,273.654 317.103,280.497 314.376 C 290.560 310.367,302.719 303.585,311.600 297.030 C 314.350 295.001,317.542 292.665,318.694 291.840 C 319.845 291.016,321.160 289.818,321.615 289.179 C 322.070 288.539,323.754 286.945,325.357 285.635 C 330.139 281.728,340.395 269.942,345.055 263.000 C 346.384 261.020,348.020 258.590,348.690 257.600 C 358.876 242.543,366.548 221.946,369.699 201.200 C 371.283 190.765,371.589 169.683,370.282 161.068 C 367.050 139.778,362.574 126.512,352.242 107.600 C 345.947 96.076,342.449 93.182,337.794 95.643 M343.341 97.300 C 343.648 97.795,344.097 99.023,344.338 100.029 C 344.717 101.613,347.048 105.657,349.046 108.200 C 349.392 108.640,349.949 109.630,350.284 110.400 C 351.734 113.735,355.046 120.299,355.839 121.410 C 356.314 122.075,356.997 123.515,357.356 124.610 C 357.715 125.704,358.743 128.670,359.641 131.200 C 361.300 135.870,362.693 140.499,363.855 145.200 C 364.209 146.630,364.836 148.944,365.249 150.342 C 365.662 151.740,366.000 153.749,366.000 154.807 C 366.000 155.864,366.272 158.140,366.605 159.865 C 367.730 165.693,367.800 166.975,367.800 181.600 C 367.800 194.467,367.718 196.414,367.109 198.000 C 366.730 198.990,366.152 201.712,365.826 204.048 C 365.501 206.385,364.791 210.255,364.250 212.648 C 362.015 222.538,355.578 239.447,351.782 245.400 C 351.081 246.500,349.603 249.028,348.499 251.019 C 334.330 276.557,306.342 300.694,278.939 311.009 C 272.930 313.270,270.561 315.890,271.547 319.182 C 271.796 320.013,272.000 321.063,272.000 321.516 C 272.000 323.791,275.409 326.000,280.200 326.831 C 286.096 327.853,292.297 331.318,295.000 335.099 C 295.880 336.331,297.278 338.131,298.106 339.100 C 301.907 343.548,303.807 353.519,301.767 358.313 C 301.419 359.131,300.791 360.880,300.372 362.200 C 295.619 377.163,277.827 384.484,263.375 377.424 C 257.208 374.411,250.031 366.823,250.004 363.287 C 250.002 363.006,249.710 362.664,249.356 362.528 C 248.204 362.086,247.682 360.143,248.104 357.864 C 248.314 356.729,248.400 354.104,248.295 352.032 C 248.090 347.978,249.097 343.955,251.114 340.764 C 251.588 340.014,252.523 338.483,253.191 337.362 C 253.988 336.025,255.515 334.465,257.632 332.824 C 262.672 328.917,263.232 327.241,261.629 320.867 C 261.204 319.180,260.638 316.630,260.370 315.200 C 260.064 313.564,259.460 312.014,258.741 311.021 C 257.289 309.012,257.428 306.000,258.974 306.000 C 261.508 306.000,277.345 300.412,280.105 298.544 C 281.153 297.835,283.041 297.037,284.305 296.770 C 286.902 296.222,289.103 295.086,291.578 293.018 C 292.511 292.239,294.611 290.967,296.245 290.192 C 297.995 289.361,300.487 287.675,302.308 286.088 C 305.882 282.975,308.885 280.689,312.000 278.710 C 314.679 277.008,323.124 268.666,325.022 265.846 C 328.752 260.307,331.226 256.995,334.494 253.169 C 335.542 251.942,336.400 250.759,336.400 250.541 C 336.400 250.323,337.030 249.408,337.800 248.508 C 338.570 247.609,339.200 246.770,339.200 246.644 C 339.200 246.518,339.815 245.455,340.566 244.281 C 341.317 243.107,342.397 240.760,342.965 239.066 C 343.534 237.371,344.410 235.314,344.911 234.493 C 346.272 232.264,347.039 230.597,348.635 226.400 C 349.429 224.310,350.338 222.150,350.653 221.600 C 351.559 220.021,353.188 213.763,353.794 209.531 C 354.098 207.403,354.608 205.153,354.926 204.531 C 356.954 200.562,358.031 179.625,356.894 166.246 C 355.476 149.552,348.270 127.131,339.849 113.209 C 336.038 106.908,335.017 105.358,334.388 104.912 C 333.167 104.047,333.141 102.796,334.324 101.732 C 340.761 95.943,342.091 95.289,343.341 97.300 M47.187 197.581 C 14.099 201.989,12.185 250.108,44.823 257.043 C 61.124 260.507,75.985 251.207,80.650 234.623 C 81.827 230.436,82.715 229.022,84.549 228.417 C 87.404 227.475,88.167 228.285,91.331 235.623 C 111.214 281.728,154.918 316.457,201.020 322.787 C 202.571 323.000,205.091 323.485,206.620 323.865 C 210.835 324.913,232.790 324.933,234.696 323.892 C 236.982 322.643,237.400 321.549,237.400 316.818 C 237.400 309.462,235.954 307.952,228.927 307.967 C 196.893 308.036,166.531 297.448,144.241 278.436 C 142.284 276.766,139.674 274.537,138.441 273.482 C 130.949 267.072,118.586 251.512,114.423 243.254 C 113.576 241.574,111.918 238.490,110.738 236.400 C 109.558 234.310,108.286 231.880,107.911 231.000 C 106.330 227.287,104.318 221.638,103.162 217.670 C 100.419 208.253,99.188 207.567,89.477 210.044 C 79.344 212.627,78.659 212.518,73.789 207.549 C 66.250 199.855,56.773 196.304,47.187 197.581 M57.659 200.831 C 63.422 202.427,64.047 202.758,67.200 205.869 C 68.630 207.281,70.520 208.835,71.400 209.324 C 72.457 209.911,73.340 210.854,74.000 212.099 C 75.355 214.657,76.281 214.978,81.400 214.665 C 84.923 214.449,85.772 214.259,87.030 213.405 C 88.071 212.699,89.061 212.396,90.356 212.387 C 91.484 212.380,92.976 211.993,94.200 211.391 C 97.731 209.654,99.395 210.477,99.315 213.919 C 99.256 216.479,100.580 221.178,102.381 224.800 C 103.935 227.926,104.635 229.806,104.967 231.746 C 105.075 232.377,105.444 233.277,105.787 233.746 C 107.875 236.609,108.411 237.559,108.537 238.617 C 108.715 240.115,110.649 244.010,111.608 244.800 C 112.008 245.130,113.260 247.020,114.391 249.000 C 115.521 250.980,116.866 253.050,117.379 253.600 C 117.893 254.150,119.713 256.580,121.424 259.000 C 126.185 265.733,130.777 271.111,132.584 272.070 C 134.138 272.895,136.176 274.914,137.432 276.874 C 138.106 277.925,139.285 278.820,141.543 279.995 C 143.815 281.177,145.485 282.448,147.455 284.494 C 148.985 286.084,151.459 288.093,153.045 289.034 C 154.610 289.962,156.739 291.369,157.776 292.161 C 158.813 292.952,160.143 293.716,160.731 293.857 C 161.319 293.999,162.651 294.540,163.692 295.060 C 164.732 295.580,166.622 296.391,167.892 296.862 C 169.161 297.334,171.157 298.328,172.326 299.072 C 173.496 299.815,175.593 300.688,176.987 301.012 C 178.381 301.335,181.024 302.312,182.861 303.183 C 184.790 304.098,187.636 305.046,189.600 305.429 C 191.470 305.794,193.900 306.495,195.000 306.987 C 196.100 307.479,198.232 308.005,199.738 308.156 C 201.244 308.307,203.224 308.716,204.138 309.065 C 206.623 310.015,227.257 310.558,230.473 309.758 C 234.369 308.788,235.688 310.034,234.859 313.900 C 234.629 314.970,234.544 316.835,234.669 318.046 C 235.042 321.659,235.318 321.576,223.590 321.365 C 217.123 321.249,212.621 320.983,210.866 320.614 C 209.372 320.300,206.181 319.845,203.775 319.603 C 177.019 316.918,144.336 299.809,122.988 277.314 C 112.674 266.446,106.531 257.971,100.000 245.600 C 97.967 241.750,96.180 238.420,96.027 238.200 C 95.767 237.824,94.460 234.456,93.001 230.400 C 89.781 221.452,78.813 222.278,78.082 231.524 C 77.983 232.776,77.717 234.031,77.491 234.313 C 77.265 234.595,76.501 236.160,75.792 237.790 C 73.046 244.107,69.428 248.114,63.946 250.911 C 42.971 261.615,19.544 243.382,25.344 220.869 C 27.741 211.564,30.993 207.630,40.067 203.060 C 48.689 198.718,49.609 198.602,57.659 200.831 M47.600 206.641 C 33.380 209.285,25.731 224.919,32.552 237.400 C 33.371 238.900,34.570 240.337,35.748 241.232 C 36.785 242.020,38.063 243.296,38.588 244.068 C 39.292 245.104,40.150 245.689,41.871 246.305 C 53.712 250.540,65.167 246.650,70.138 236.704 C 77.752 221.470,64.307 203.535,47.600 206.641 M58.450 211.492 C 77.420 220.743,68.610 248.453,47.848 244.838 C 39.029 243.302,31.745 234.008,33.111 226.034 C 35.251 213.545,47.843 206.319,58.450 211.492 M267.854 333.386 C 255.084 337.892,249.853 353.787,257.380 365.212 C 266.383 378.877,288.715 376.459,294.439 361.200 C 298.692 349.860,293.589 338.498,281.848 333.166 C 279.225 331.975,271.509 332.096,267.854 333.386 M281.200 336.970 C 291.700 342.342,295.517 351.623,291.074 360.978 C 283.819 376.256,261.634 373.810,257.755 357.304 C 254.581 343.801,269.411 330.939,281.200 336.970 " stroke="none" fill="#4b8154" fill-rule="evenodd"></path></g></svg>